<?xml version="1.0" standalone="no"?>
<!DOCTYPE svg PUBLIC "-//W3C//DTD SVG 1.1//EN" "http://www.w3.org/Graphics/SVG/1.1/DTD/svg11.dtd" >
<svg xmlns="http://www.w3.org/2000/svg" xmlns:xlink="http://www.w3.org/1999/xlink" version="1.1">
<metadata></metadata>
<defs>
<font id="modern_hmedium" horiz-adv-x="920" >
<font-face units-per-em="1000" ascent="800" descent="-200" />
<missing-glyph horiz-adv-x="500" />
<glyph horiz-adv-x="0" />
<glyph horiz-adv-x="333" />
<glyph horiz-adv-x="300" />
<glyph unicode="!" horiz-adv-x="330" d="M106 740h118l-18 -538h-83zM109 -30v114h109v-114h-109z" />
<glyph unicode="&#x22;" horiz-adv-x="440" d="M72 751h103q-2 -48 -7 -136t-7 -135h-32q-20 0 -31.5 12.5t-12.5 30.5q-8 128 -13 228zM252 751h102q-2 -48 -7 -136t-7 -135h-31q-21 0 -32.5 12.5t-12.5 30.5q-2 40 -6 114t-6 114z" />
<glyph unicode="#" horiz-adv-x="697" d="M28 178v78h124l32 195h-102v78h114l33 201h98l-33 -201h166l33 201h98l-33 -201h110v-43q0 -20 -8.5 -27.5t-29.5 -7.5h-85l-31 -195h100v-43q0 -20 -8.5 -27.5t-29.5 -7.5h-75l-29 -181q-6 -41 -42 -41h-62l36 222h-167l-29 -181q-6 -41 -42 -41h-62l36 222h-112z M250 256h166l32 195h-167z" />
<glyph unicode="$" horiz-adv-x="530" d="M40 0v33q0 24 13.5 34.5t47.5 10.5h116v243l-45 20q-130 57 -130 178q0 148 175 164v77h97v-74h148v-33q0 -29 -13 -37.5t-47 -8.5h-88v-237l32 -15q83 -39 114.5 -79t31.5 -101q0 -151 -178 -172v-76h-57q-23 0 -31.5 10t-8.5 33v30h-177zM140 519q0 -38 18 -60.5 t59 -43.5v188q-77 -13 -77 -84zM314 83q81 17 81 91q0 32 -16.5 55.5t-64.5 47.5v-194z" />
<glyph unicode="%" horiz-adv-x="849" d="M35 535q0 81 42.5 125.5t122.5 44.5q78 0 121.5 -45t43.5 -125q0 -79 -43.5 -124t-121.5 -45q-80 0 -122.5 43.5t-42.5 125.5zM132 535q0 -91 68 -91q39 0 53 24t14 67t-14 67.5t-53 24.5q-68 0 -68 -92zM200 -31l345 747h103l-331 -715q-9 -19 -20.5 -25.5t-31.5 -6.5 h-65zM481 148q0 81 42.5 125.5t122.5 44.5q78 0 121.5 -45t43.5 -125t-43 -124.5t-122 -44.5q-80 0 -122.5 43.5t-42.5 125.5zM578 148q0 -91 68 -91q39 0 53 24t14 67t-14 67.5t-53 24.5q-68 0 -68 -92z" />
<glyph unicode="&#x26;" horiz-adv-x="703" d="M37 154q0 107 109 183l65 45l-45 54q-22 27 -32 41t-21.5 41t-11.5 54q0 71 50.5 114.5t150.5 43.5q86 0 143 -45t57 -116q0 -87 -81 -147l-81 -58l165 -190q26 49 26 135l88 -10q-3 -117 -52 -195l117 -134h-114l-56 61q-91 -75 -227 -75q-126 0 -188 57t-62 141z M135 153q0 -55 42 -86.5t110 -31.5q107 0 169 62l-189 220l-66 -47q-36 -27 -51 -53.5t-15 -63.5zM199 573q-1 -35 32 -76l55 -67l70 48q48 33 48 91q0 38 -27.5 60t-74.5 22q-100 0 -103 -78z" />
<glyph unicode="'" horiz-adv-x="288" d="M94 751h102q-2 -48 -7 -136t-7 -135h-30q-21 0 -32.5 12.5t-12.5 30.5q-5 100 -13 228z" />
<glyph unicode="(" horiz-adv-x="380" d="M85 352q0 95 8 155q11 87 49.5 149t113.5 107l51 -55q-99 -58 -119 -202q-8 -57 -8 -154q0 -95 8 -154q8 -62 39.5 -117.5t79.5 -83.5l-51 -58q-69 33 -111.5 103.5t-51.5 154.5q-8 60 -8 155z" />
<glyph unicode=")" horiz-adv-x="384" d="M74 -6q99 58 119 202q8 57 8 154q0 95 -8 154q-8 62 -39.5 117.5t-79.5 83.5l51 58q69 -33 111 -103t52 -155q8 -72 8 -155q0 -95 -8 -155q-11 -87 -49.5 -149t-113.5 -107z" />
<glyph unicode="*" horiz-adv-x="572" d="M63 451l163 65l-161 78l54 88l139 -104l-15 173h99l-12 -165l139 98l49 -90l-156 -71l156 -72l-50 -88l-138 94l15 -162h-101l15 160l-139 -91z" />
<glyph unicode="+" horiz-adv-x="600" d="M55 301v79h195v198h99v-198h197v-79h-197v-201h-99v201h-195z" />
<glyph unicode="," horiz-adv-x="256" d="M66 -30v114h123v-114q0 -52 -24.5 -90.5t-68.5 -56.5q-4 6 -13.5 18t-13.5 18q54 29 54 83v28h-57z" />
<glyph unicode="-" horiz-adv-x="553" d="M66 301v79h422v-79h-422z" />
<glyph unicode="." horiz-adv-x="256" d="M73 -30v114h109v-114h-109z" />
<glyph unicode="/" horiz-adv-x="490" d="M57 -52l284 803h99l-285 -803h-98z" />
<glyph unicode="0" horiz-adv-x="520" d="M32 345q0 79 5.5 136t20.5 106.5t40 79t65 46.5t96 17q57 0 97.5 -16t66.5 -45t40 -78.5t19.5 -106.5t5.5 -139q0 -213 -49.5 -301t-179.5 -88t-178.5 91.5t-48.5 297.5zM130 345q0 -53 1.5 -89.5t6 -75t13.5 -62.5t23 -44.5t35 -29.5t50 -9q31 0 53 9t36.5 30t23 44 t12.5 63t5 74t1 90q0 54 -1 87t-5 73t-12.5 63t-23 44t-36.5 30t-53 9q-29 0 -50.5 -9t-35.5 -29.5t-22.5 -44t-13 -61.5t-6 -73.5t-1.5 -88.5z" />
<glyph unicode="1" horiz-adv-x="520" d="M116 637v79h180q39 0 39 -37v-709h-46q-28 0 -40 14t-12 44v609h-121z" />
<glyph unicode="2" horiz-adv-x="520" d="M44 31v92q0 82 67 130l193 136q69 49 69 137q0 56 -38 90.5t-109 34.5q-74 0 -168 -28v80q81 27 168 27q120 0 183 -52.5t62 -151.5q-1 -66 -26 -112.5t-81 -86.5l-188 -133q-34 -24 -34 -77v-68h334v-30q0 -49 -54 -49h-310q-37 0 -52.5 12.5t-15.5 48.5z" />
<glyph unicode="3" horiz-adv-x="520" d="M45 6q0 45 52 38q55 -7 114 -7q82 0 125.5 31t43.5 112q0 77 -34.5 106.5t-110.5 31.5h-111q-17 0 -23.5 5.5t-6.5 21.5v52h141q70 0 98.5 33.5t28.5 110.5q0 61 -43 86q-42 25 -94 24q-31 0 -78 -6q-18 -2 -45.5 -8t-36.5 -7v78q81 22 161 22q102 0 169 -46.5t65 -144.5 q-2 -132 -94 -177q57 -17 84.5 -65.5t27.5 -110.5q0 -121 -71.5 -176.5t-196.5 -53.5q-70 0 -165 16v34z" />
<glyph unicode="4" horiz-adv-x="520" d="M16 106v81l262 484q12 24 28 34.5t46 10.5h88v-532h64v-37q0 -41 -42 -41h-22v-136h-45q-27 0 -38 13.5t-11 44.5v78h-330zM108 184h238v438z" />
<glyph unicode="5" horiz-adv-x="520" d="M53 7q0 24 17.5 31.5t36.5 4.5q71 -7 105 -8q80 -2 119.5 41t39.5 128q0 62 -27.5 100t-105.5 38h-176v374h390v-38q0 -41 -46 -41h-246v-216h84q123 0 174 -55.5t51 -161.5q0 -248 -250 -248q-74 0 -166 16v35z" />
<glyph unicode="6" horiz-adv-x="520" d="M40 158v282q0 275 253 275q90 0 153 -8v-41q0 -23 -11 -29.5t-30 -6.5q-68 5 -111 5q-44 0 -75.5 -13.5t-47.5 -32t-25 -46.5t-10.5 -47.5t-1.5 -44.5v-53q48 48 134 48q105 0 158 -51.5t53 -146.5v-90q0 -197 -217 -202q-106 -2 -164 50t-58 152zM134 170 q0 -71 29 -101.5t99 -30.5q122 0 122 133v64q0 70 -29 99.5t-89 29.5q-66 0 -99 -29t-33 -96v-69z" />
<glyph unicode="7" horiz-adv-x="520" d="M43 637v79h400q35 0 35 -30v-40q0 -19 -12 -52l-223 -591q-14 -33 -45 -33h-63l252 667h-344z" />
<glyph unicode="8" horiz-adv-x="520" d="M20 169q0 149 96 202q-79 49 -79 156q0 104 61 153.5t161 49.5t162.5 -50t62.5 -152q0 -54 -20.5 -97t-60.5 -62q54 -25 76 -73t22 -121q0 -102 -60 -160.5t-180 -58.5q-111 0 -176 53.5t-65 159.5zM118 179q0 -69 37 -106.5t106 -37.5q74 0 108 41.5t34 100.5 q0 77 -32 114.5t-112 37.5q-75 0 -108 -38t-33 -112zM135 528q0 -126 123 -126q128 0 128 126q0 123 -126 123q-125 0 -125 -123z" />
<glyph unicode="9" horiz-adv-x="520" d="M40 437v91q0 197 217 202q106 2 164 -50t58 -152v-283q0 -275 -253 -275q-90 0 -153 8v41q0 38 41 36q68 -5 111 -5q44 0 75.5 13.5t47.5 32t25 46.5t10.5 47.5t1.5 44.5v53q-48 -48 -134 -48q-105 0 -158 51.5t-53 146.5zM135 450q0 -70 29 -99.5t89 -29.5q66 0 99 29 t33 96v70q0 71 -29 101.5t-99 30.5q-122 0 -122 -133v-65z" />
<glyph unicode=":" horiz-adv-x="256" d="M73 90v114h109v-114h-109zM73 484v114h109v-114h-109z" />
<glyph unicode=";" horiz-adv-x="256" d="M45 -3q6 35 17.5 104t17.5 103h106q-64 -180 -90 -255h-30q-29 0 -21 48zM73 484v114h109v-114h-109z" />
<glyph unicode="&#x3c;" horiz-adv-x="495" d="M61 341q192 212 288 317q11 -8 33.5 -28t35.5 -30l-237 -259q39 -43 118 -130t118 -130l-68 -61q-41 45 -138.5 154.5t-149.5 166.5z" />
<glyph unicode="=" horiz-adv-x="580" d="M79 202v79h422v-79h-422zM79 426v79h422v-79h-422z" />
<glyph unicode="&#x3e;" horiz-adv-x="476" d="M90 601q13 9 35 28t35 29q34 -38 133 -147.5t153 -169.5q-49 -54 -144 -161t-142 -159l-69 60l236 260q-39 43 -118.5 130t-118.5 130z" />
<glyph unicode="?" horiz-adv-x="538" d="M43 709q97 31 198 31q112 0 180 -49.5t68 -136.5q0 -114 -94 -182l-86 -61q-19 -14 -23.5 -29.5t-4.5 -47.5v-55h-98v58q0 48 9 76t33 44l91 62q44 30 59.5 60.5t15.5 70.5q0 53 -38.5 82t-109.5 29q-95 0 -195 -30zM177 -30v114h109v-114h-109z" />
<glyph unicode="@" horiz-adv-x="916" d="M36 346q0 188 114 302.5t326 114.5q196 0 299 -101.5t103 -272.5q0 -118 -68.5 -199t-177.5 -81h-208q-72 0 -116.5 36t-44.5 94v50q0 66 43.5 100t122.5 32q55 0 119 -6v38q0 28 -13.5 41t-49.5 13h-138q-28 0 -37.5 9t-9.5 31v39h199q78 0 112.5 -36.5t34.5 -106.5 v-250q57 1 95 62t38 133q0 138 -73.5 217t-232.5 79q-164 0 -251.5 -95t-87.5 -245q0 -151 81.5 -239t253.5 -88q83 0 184 31l18 -48q10 -24 -14 -31q-102 -31 -203 -31q-204 0 -311 111t-107 297zM362 247q0 -32 19 -45.5t62 -13.5h105v149q-52 6 -105 6q-43 0 -62 -12.5 t-19 -44.5v-39z" />
<glyph unicode="A" horiz-adv-x="656" d="M17 -30l250 746h85q35 0 48 -36l240 -710h-100l-87 265q-10 -19 -34 -32.5t-56 -13.5h-175l-70 -219h-101zM214 270h228l-114 352z" />
<glyph unicode="B" horiz-adv-x="636" d="M73 -30v746h289q98 0 148 -47.5t50 -125.5v-45q0 -91 -69 -140q44 -19 67 -57t23 -83v-65q0 -92 -64 -137.5t-155 -45.5h-289zM170 49h191q59 0 90.5 31t31.5 78v47q0 49 -29.5 80t-91.5 31h-192v-267zM170 395h193q55 0 77.5 30.5t22.5 73.5v39q0 43 -26 71t-74 28h-193 v-242z" />
<glyph unicode="C" horiz-adv-x="573" d="M61 162v365q0 88 59 138.5t164 50.5h243v-28q0 -24 -13.5 -37.5t-51.5 -13.5h-175q-128 0 -128 -123v-345q0 -51 27.5 -85.5t78.5 -34.5h272v-29q0 -50 -66 -50h-210q-88 0 -144 53t-56 139z" />
<glyph unicode="D" horiz-adv-x="657" d="M74 -30v746h279q118 0 179.5 -59t61.5 -153v-327q0 -93 -61 -150t-180 -57h-279zM171 49h182q66 0 105 36.5t39 91.5v327q0 61 -39.5 97t-104.5 36h-182v-588z" />
<glyph unicode="E" horiz-adv-x="592" d="M74 -30v746h462v-25q0 -28 -11 -41t-44 -13h-309v-232h332v-28q0 -24 -11 -37.5t-43 -13.5h-278v-277h376v-28q0 -24 -11.5 -37.5t-42.5 -13.5h-420z" />
<glyph unicode="F" horiz-adv-x="571" d="M74 26v690h474v-27q0 -52 -59 -52h-317v-232h343v-28q0 -51 -60 -51h-283v-356h-44q-29 0 -41.5 12.5t-12.5 43.5z" />
<glyph unicode="G" horiz-adv-x="664" d="M67 166v357q0 90 60.5 141.5t153.5 51.5h301v-26q0 -28 -13.5 -40.5t-48.5 -12.5h-239q-51 0 -83.5 -30.5t-32.5 -83.5v-358q0 -50 30 -83t86 -33h122q47 0 72.5 30.5t25.5 76.5v134q0 12 -4.5 16t-14.5 4h-98q-32 0 -45.5 9.5t-13.5 35.5v34h199q41 0 58 -18.5t17 -58.5 v-156q0 -91 -53 -138.5t-142 -47.5h-123q-97 0 -155.5 50.5t-58.5 145.5z" />
<glyph unicode="H" horiz-adv-x="672" d="M74 24v692h98v-311h325v311h98v-746h-43q-29 0 -42 12.5t-13 41.5v346q-28 -44 -88 -44h-237v-356h-44q-29 0 -41.5 12.5t-12.5 41.5z" />
<glyph unicode="I" horiz-adv-x="263" d="M84 24v692h99v-746h-45q-29 0 -41.5 12.5t-12.5 41.5z" />
<glyph unicode="J" horiz-adv-x="413" d="M13 1q0 27 13 37.5t45 10.5h63q55 0 80 25t25 85v557h99v-557q0 -96 -49.5 -142.5t-154.5 -46.5h-121v31z" />
<glyph unicode="K" horiz-adv-x="619" d="M74 25v691h98v-746h-45q-28 0 -40.5 13t-12.5 42zM206 355l276 361h119l-276 -360l290 -386h-80q-39 0 -58 26z" />
<glyph unicode="L" horiz-adv-x="538" d="M74 -30v746h98v-667h348v-28q0 -28 -11.5 -39.5t-40.5 -11.5h-394z" />
<glyph unicode="M" horiz-adv-x="883" d="M77 18v698h102l249 -463q6 -12 12 -12t13 12l249 463h102v-746h-44q-29 0 -41.5 12.5t-12.5 40.5v507l-188 -339q-28 -52 -78 -52q-48 0 -77 51l-188 340v-560h-44q-54 0 -54 48z" />
<glyph unicode="N" horiz-adv-x="669" d="M74 24v692h309q111 0 161 -41.5t50 -153.5v-551h-43q-29 0 -42 12.5t-13 41.5v498q0 66 -24.5 90.5t-88.5 24.5h-211v-667h-44q-29 0 -41.5 12.5t-12.5 41.5z" />
<glyph unicode="O" horiz-adv-x="695" d="M59 273v140q0 317 287 317q145 0 216.5 -81.5t71.5 -235.5v-141q0 -154 -71.5 -235t-216.5 -81q-287 0 -287 317zM157 272q0 -230 189 -232q190 0 190 233v141q-2 232 -190 232q-189 0 -189 -233v-141z" />
<glyph unicode="P" horiz-adv-x="617" d="M73 24v692h272q105 0 160 -43.5t55 -140.5v-97q0 -26 -3 -46.5t-15.5 -48t-34.5 -46t-63.5 -31.5t-98.5 -13h-174v-280h-43q-29 0 -42 12.5t-13 41.5zM171 331h174q117 0 117 104v97q0 103 -117 103h-174v-304z" />
<glyph unicode="Q" horiz-adv-x="696" d="M60 273v140q0 317 287 317q145 0 216.5 -81.5t71.5 -235.5v-141q0 -175 -91 -254l102 -133h-64q-42 0 -65 28l-50 62q-55 -19 -120 -19q-287 0 -287 317zM158 272q0 -125 43 -178.5t146 -53.5q110 0 150 56t40 177v141v19q0 40 -7 73q-9 41 -30 73.5t-59.5 49.5t-93.5 17 q-54 0 -92.5 -17t-59.5 -49.5t-30 -73.5q-7 -34 -7 -74v-19v-141z" />
<glyph unicode="R" horiz-adv-x="630" d="M73 24v692h294q102 0 154.5 -48t52.5 -123v-75q0 -58 -30.5 -102.5t-96.5 -63.5l155 -334h-106l-148 323h-177v-323h-45q-28 0 -40.5 12.5t-12.5 41.5zM171 374h196q109 0 109 105v56q0 48 -27.5 74t-81.5 26h-196v-261z" />
<glyph unicode="S" horiz-adv-x="569" d="M40 1q0 25 13 36.5t46 11.5h173q153 0 153 111q0 40 -26 69t-88 57l-129 58q-134 61 -134 190q0 84 58 133t174 49h219v-33q0 -27 -14 -36.5t-47 -9.5h-158q-133 0 -133 -103q0 -42 22.5 -68t72.5 -50l123 -56q90 -42 124.5 -86.5t34.5 -112.5q0 -44 -15 -78t-38.5 -55 t-57 -34.5t-67 -18.5t-71.5 -5h-235v31z" />
<glyph unicode="T" horiz-adv-x="596" d="M18 637v79h563v-27q0 -29 -11 -40.5t-46 -11.5h-176v-667h-44q-28 0 -41 12.5t-13 41.5v613h-232z" />
<glyph unicode="U" horiz-adv-x="676" d="M75 165v551h98v-552q0 -66 24.5 -90.5t88.5 -24.5h211v667h98v-746h-309q-111 0 -161 41.5t-50 153.5z" />
<glyph unicode="V" horiz-adv-x="645" d="M13 716h101l208 -654l208 654h102l-249 -746h-79q-42 0 -54 37z" />
<glyph unicode="W" horiz-adv-x="908" d="M14 716h98l143 -640q53 188 152 575h100l152 -575l143 640h98q-30 -126 -87.5 -373t-87.5 -373h-69q-57 0 -74 65l-125 468q-100 -366 -142 -533h-64q-35 0 -51.5 14.5t-25.5 48.5q-29 126 -83.5 358t-76.5 325z" />
<glyph unicode="X" horiz-adv-x="651" d="M18 -30l250 374l-246 372h108l192 -288l192 288h110l-245 -372l249 -374h-112l-194 288l-192 -288h-112z" />
<glyph unicode="Y" horiz-adv-x="664" d="M16 716h106l208 -360l209 360h107l-269 -450v-296h-43q-29 0 -42 12.5t-13 41.5v242z" />
<glyph unicode="Z" horiz-adv-x="618" d="M33 -30v84l421 583h-409v79h518v-80l-423 -587h440v-50q0 -29 -33 -29h-514z" />
<glyph unicode="[" horiz-adv-x="440" d="M133 -76v866h234v-79h-136v-708h136v-79h-234z" />
<glyph unicode="\" d="M16 331v79h73q-36 154 -72 306h98l67 -306h166q8 32 29 114t33 127h100l62 -241h166l67 306h98l-72 -306h71v-79h-89q-56 -240 -85 -361h-69q-58 0 -74 65l-77 296h-95q-80 -302 -95 -361h-64q-35 0 -51.5 15t-25.5 48q-46 198 -70 298h-91zM199 331l59 -267 q36 136 69 267h-128zM433 410h55l-28 106q-18 -70 -27 -106zM593 331l69 -267l59 267h-128z" />
<glyph unicode="]" horiz-adv-x="440" d="M79 3h135v708h-135v79h233v-866h-233v79z" />
<glyph unicode="^" horiz-adv-x="606" d="M93 579l164 237h95l163 -237h-106l-105 160l-103 -160h-108z" />
<glyph unicode="_" horiz-adv-x="607" d="M103 -49h405v-79h-405v79z" />
<glyph unicode="`" horiz-adv-x="316" d="M62 791l95 45q17 -40 51.5 -122.5t53.5 -126.5l-28 -13q-37 -18 -59 20z" />
<glyph unicode="a" horiz-adv-x="537" d="M55 116v62q0 157 170 157h11q70 -1 138 -10v45q0 71 -80 71h-135q-38 0 -51 12t-13 35v32h199q178 0 178 -150v-400h-236q-85 0 -133 37.5t-48 108.5zM153 121q0 -39 25 -55.5t59 -16.5h137v193q-74 10 -137 10q-44 0 -64 -18t-20 -60v-53z" />
<glyph unicode="b" horiz-adv-x="549" d="M75 -30v751h98v-201h112q100 0 152.5 -44.5t52.5 -131.5v-198q0 -176 -205 -176h-210zM173 49h112q50 0 78.5 27t28.5 80v178q0 53 -28.5 80t-77.5 27h-113v-392z" />
<glyph unicode="c" horiz-adv-x="498" d="M62 154v180q0 84 56.5 135t147.5 51h187v-27q0 -25 -12 -38.5t-49 -13.5h-126q-51 0 -78.5 -27.5t-27.5 -79.5v-179q0 -48 28 -77t78 -29h191v-29q0 -24 -13 -37t-51 -13h-127q-91 0 -147.5 50t-56.5 134z" />
<glyph unicode="d" horiz-adv-x="546" d="M58 146v198q0 87 52.5 131.5t152.5 44.5h112v201h98v-751h-210q-205 0 -205 176zM156 156q0 -53 28.5 -80t78.5 -27h112v392h-113q-49 0 -77.5 -27t-28.5 -80v-178z" />
<glyph unicode="e" horiz-adv-x="543" d="M55 146v191q0 100 60 148.5t154 48.5q97 0 157.5 -47t60.5 -130v-80q0 -36 -18 -54t-59 -18h-257v-59q0 -45 26.5 -71t66.5 -26h221v-32q0 -24 -12 -35.5t-51 -11.5h-158q-87 0 -139 47.5t-52 128.5zM153 284h218q11 0 14.5 4t3.5 16v53q0 46 -31 72t-89 26 q-53 0 -84.5 -26.5t-31.5 -71.5v-73z" />
<glyph unicode="f" horiz-adv-x="429" d="M28 441v79h106v65q0 68 30 102t109 34h128v-25q0 -54 -65 -54h-63q-41 0 -41 -50v-72h148v-36q0 -21 -18.5 -32t-41.5 -11h-88v-471h-44q-29 0 -41.5 12.5t-12.5 42.5v416h-106z" />
<glyph unicode="g" horiz-adv-x="555" d="M60 146v199q0 85 52.5 130t143.5 45h229v-613q0 -62 -38 -104t-126 -42h-213v32q0 47 59 47h151q34 0 51.5 18.5t17.5 50.5v61h-131q-92 0 -144 45.5t-52 130.5zM158 145q0 -54 29.5 -75t68.5 -21h131v392h-131q-48 0 -73 -27t-25 -70v-199z" />
<glyph unicode="h" horiz-adv-x="568" d="M74 25v696h98v-201h146q184 0 184 -165v-385h-43q-29 0 -42 12.5t-13 42.5v329q0 87 -86 87h-146v-471h-44q-29 0 -41.5 12.5t-12.5 42.5z" />
<glyph unicode="i" horiz-adv-x="249" d="M72 657v64h102v-125h-34q-29 0 -48.5 16.5t-19.5 44.5zM74 25v495h98v-550h-43q-29 0 -42 12.5t-13 42.5z" />
<glyph unicode="j" horiz-adv-x="315" d="M-11 -208q0 23 14.5 36t39.5 13h43q34 0 45 18.5t11 59.5v601h98v-601q0 -82 -37.5 -120t-116.5 -38h-97v31zM140 657v64h102v-125h-35q-29 0 -48 16.5t-19 44.5z" />
<glyph unicode="k" horiz-adv-x="539" d="M75 25v696h98v-751h-43q-29 0 -42 12.5t-13 42.5zM195 266l211 254h113l-214 -255l226 -295h-109z" />
<glyph unicode="l" horiz-adv-x="251" d="M73 25v696h98v-751h-44q-28 0 -41 12.5t-13 42.5z" />
<glyph unicode="m" horiz-adv-x="771" d="M69 25v495h461q89 0 130 -37.5t41 -117.5v-395h-45q-28 0 -40.5 12.5t-12.5 42.5v340q0 76 -73 76h-96v-471h-43q-29 0 -42 12.5t-13 42.5v416h-169v-471h-44q-29 0 -41.5 12.5t-12.5 42.5z" />
<glyph unicode="n" horiz-adv-x="565" d="M70 25v495h239q104 0 145 -38.5t41 -134.5v-377h-44q-29 0 -42 12.5t-13 42.5v322q0 55 -19 74.5t-68 19.5h-141v-471h-42q-30 0 -43 12.5t-13 42.5z" />
<glyph unicode="o" horiz-adv-x="568" d="M60 173v145q0 216 223 216t223 -216v-145q0 -217 -223 -217t-223 217zM158 173q0 -72 30 -105t95 -33q66 0 95.5 32t29.5 106v145q-2 71 -30.5 104t-94.5 33t-95.5 -34.5t-29.5 -102.5v-145z" />
<glyph unicode="p" horiz-adv-x="546" d="M69 -168v688h215q200 0 200 -184v-183q0 -183 -200 -183h-117v-194h-43q-30 0 -42.5 13t-12.5 43zM167 49h117q102 0 102 104v183q0 105 -102 105h-117v-392z" />
<glyph unicode="q" horiz-adv-x="544" d="M62 153v183q0 184 200 184h215v-744h-43q-30 0 -42.5 13t-12.5 43v138h-117q-200 0 -200 183zM160 153q0 -104 102 -104h117v392h-117q-102 0 -102 -105v-183z" />
<glyph unicode="r" horiz-adv-x="408" d="M67 25v358q0 137 144 137h178v-21q0 -58 -71 -58h-107q-46 0 -46 -58v-413h-44q-28 0 -41 12.5t-13 42.5z" />
<glyph unicode="s" horiz-adv-x="466" d="M48 373q0 58 46 102.5t134 44.5h171v-33q0 -46 -63 -46h-108q-42 0 -62 -19t-20 -49q0 -53 59 -71l89 -27q131 -40 131 -152q0 -73 -50.5 -113t-138.5 -40h-185v29q0 50 60 50h125q42 0 66.5 18.5t24.5 55.5q0 53 -56 71l-89 30q-68 23 -101 58t-33 91z" />
<glyph unicode="t" horiz-adv-x="357" d="M14 441v79h90v180h98v-180h129v-31q0 -23 -14 -35.5t-52 -12.5h-63v-322q0 -70 48 -70h89v-30q0 -49 -64 -49h-25q-78 0 -112 38t-34 111v322h-90z" />
<glyph unicode="u" horiz-adv-x="555" d="M65 168v352h97v-352q0 -71 22.5 -95t82.5 -24h121v471h98v-550h-219q-107 0 -154.5 44.5t-47.5 153.5z" />
<glyph unicode="v" horiz-adv-x="507" d="M11 520h94l149 -462l147 462h91l-182 -550h-72q-43 0 -58 45z" />
<glyph unicode="w" horiz-adv-x="734" d="M5 520h89l106 -436l121 413h90l121 -412l106 435h89l-140 -550h-57q-46 0 -60 51l-104 340l-119 -391h-52q-31 0 -44 12.5t-20 41.5z" />
<glyph unicode="x" horiz-adv-x="547" d="M15 -30l201 276l-195 274h109l140 -201l141 201h111l-196 -274l202 -276h-108l-147 207l-148 -207h-110z" />
<glyph unicode="y" horiz-adv-x="555" d="M64 146v374h98v-373q0 -51 17 -75q16 -22 57 -22h3q49 1 149 10v460h98v-612q0 -67 -42 -107t-129 -40h-225v32q0 28 13.5 39.5t47.5 11.5h164q41 0 57 16.5t16 48.5v70q-57 -6 -153 -9h-10q-79 0 -119 43q-42 46 -42 133z" />
<glyph unicode="z" horiz-adv-x="498" d="M36 -30v80l301 391h-288v79h393v-79l-303 -391h316v-46q0 -34 -37 -34h-382z" />
<glyph unicode="{" horiz-adv-x="440" d="M99 318v74q85 2 85 64v205q0 130 125 130h66v-73q-51 -1 -74.5 -13.5t-23.5 -44.5v-198q0 -80 -44 -108q44 -33 44 -107v-190q0 -35 20.5 -46t77.5 -11v-73h-71q-120 0 -120 125v201q0 61 -85 65z" />
<glyph unicode="|" horiz-adv-x="332" d="M128 -52v819h89v-819h-89z" />
<glyph unicode="}" horiz-adv-x="440" d="M75 0q57 0 77.5 11t20.5 46v190q0 74 44 107q-44 28 -44 108v198q0 32 -23.5 44.5t-74.5 13.5v73h66q125 0 125 -130v-205q0 -62 85 -64v-74q-85 -4 -85 -65v-201q0 -125 -120 -125h-71v73z" />
<glyph unicode="~" horiz-adv-x="725" d="M62 255q9 87 55 140.5t126 53.5q58 0 90.5 -21t77.5 -79q20 -27 37.5 -38.5t43.5 -11.5q80 0 92 116h89q-4 -87 -47 -141.5t-132 -54.5q-53 0 -87.5 21t-70.5 66q-29 36 -48 50t-43 14q-78 0 -91 -116z" />
<glyph unicode="&#xa1;" horiz-adv-x="330" d="M106 -54l17 538h83l18 -538h-118zM109 602v114h109v-114h-109z" />
<glyph unicode="&#xa2;" d="M232 154v180q0 84 56.5 135t147.5 51h63l44 123l79 -30l-33 -93h34v-27q0 -25 -12 -38.5t-49 -13.5h-1l-140 -391q5 -1 15 -1h191v-29q0 -24 -13 -37t-51 -13h-127q-22 0 -42 3l-34 -95l-78 30l33 93q-83 49 -83 153zM330 155q0 -36 17 -64l124 350h-35 q-51 0 -78.5 -27.5t-27.5 -79.5v-179z" />
<glyph unicode="&#xa3;" d="M176 21h68q15 25 27 101.5t3 144.5h-69v62h60q-10 92 0 142q15 88 75 136t145 44q87 -5 148 -66q17 -21 31 -55.5t16 -58.5h-80q0 36 -33.5 71.5t-88.5 35.5q-45 0 -78.5 -25.5t-44.5 -64.5q-14 -48 -5 -159h233v-62h-227q8 -68 -1 -138.5t-26 -108.5h207h13.5h14t13 0.5 t14 1t12.5 2.5t12.5 4t11 6t11 8.5t9 10.5t7.5 14q8 22 8 52h71q0 -35 -7 -57q-10 -38 -28.5 -62t-48.5 -34t-58 -13t-75 -3h-340v71z" />
<glyph unicode="&#xa4;" horiz-adv-x="561" d="M32 88l58 59q-23 48 -23 116v35q0 67 23 115l-58 60l61 59l54 -56q54 33 139 33q80 0 130 -28l50 51l61 -59l-50 -51q28 -50 28 -124v-35q0 -74 -28 -124l50 -51l-61 -59l-49 50q-50 -28 -131 -28q-85 0 -139 33l-54 -55zM161 263q0 -67 32.5 -102.5t92.5 -35.5t92.5 35 t32.5 103v35q0 61 -30.5 99t-94.5 38q-59 0 -92 -35t-33 -102v-35z" />
<glyph unicode="&#xa5;" d="M140 716h106l208 -360l209 360h107l-238 -398h181v-80h-212v-53h212v-80h-212v-135h-43q-29 0 -42 12.5t-13 41.5v81h-219v80h219v53h-219v80h189z" />
<glyph unicode="&#xa6;" horiz-adv-x="248" d="M80 -30v274h88v-274h-88zM80 443v273h88v-273h-88z" />
<glyph unicode="&#xa7;" horiz-adv-x="466" d="M41 324q0 36 18.5 69t55.5 54q-74 43 -74 123q0 58 46 102t134 44h171v-33q0 -46 -63 -46h-108q-42 0 -62 -18.5t-20 -48.5q0 -53 59 -71l89 -27q131 -40 131 -148q0 -85 -67 -127q67 -42 67 -119q0 -73 -51 -115t-138 -42h-185v29q0 50 60 50h125q42 0 66.5 20.5 t24.5 57.5q0 49 -56 67l-89 30q-68 23 -101 58t-33 91zM139 324q0 -53 59 -71l23 -7h8q42 0 66.5 20.5t24.5 57.5q0 49 -56 67l-3 1h-40q-42 0 -62 -19t-20 -49z" />
<glyph unicode="&#xa8;" horiz-adv-x="666" d="M110 584v113h113v-113h-113zM443 584v113h113v-113h-113z" />
<glyph unicode="&#xa9;" horiz-adv-x="866" d="M38 346q0 175 110.5 284t286.5 109q175 0 285.5 -109t110.5 -284q0 -174 -110.5 -283t-285.5 -109q-176 0 -286.5 109t-110.5 283zM118 346q0 -142 87 -229t229 -87t228.5 87t86.5 229t-86.5 229t-228.5 87t-229 -87t-87 -229zM227 274v130q0 84 56.5 135t147.5 51h147 v-27q0 -25 -12 -38.5t-49 -13.5h-86q-51 0 -78.5 -27.5t-27.5 -79.5v-129q0 -48 28 -77t78 -29h151v-29q0 -24 -13 -37t-51 -13h-87q-91 0 -147.5 50t-56.5 134z" />
<glyph unicode="&#xaa;" horiz-adv-x="387" d="M46 443v39q0 110 123 108q28 0 76 -6v28q0 35 -41 35h-83q-30 0 -40 9.5t-10 29.5v30h133q121 0 121 -104v-270h-156q-58 0 -90.5 26t-32.5 75zM126 446q0 -34 43 -34h76v102q-48 5 -76 5q-43 0 -43 -39v-34z" />
<glyph unicode="&#xab;" d="M83 292l479 309l35 -50l-404 -261l399 -268l-35 -51zM287 292l479 309l35 -50l-403 -261l398 -268l-34 -51z" />
<glyph unicode="&#xac;" d="M36 117v63h826v-326h-72v263h-754z" />
<glyph unicode="&#xad;" horiz-adv-x="333" d="M22 325v80h288v-80h-288z" />
<glyph unicode="&#xae;" horiz-adv-x="871" d="M38 346q0 175 110.5 284t286.5 109q175 0 285.5 -109t110.5 -284q0 -174 -110.5 -283t-285.5 -109q-176 0 -286.5 109t-110.5 283zM118 346q0 -142 87 -229t229 -87q114 0 195 59h-80l-99 207h-94v-207h-41q-23 0 -34 10.5t-11 35.5v455h198q72 0 110.5 -33t38.5 -87v-45 q0 -39 -21 -73.5t-62 -43.5l104 -212q111 87 111 250q0 142 -86.5 229t-228.5 87t-229 -87t-87 -229zM356 370h112q63 0 63 61v27q0 58 -63 58h-112v-146z" />
<glyph unicode="&#xaf;" horiz-adv-x="498" d="M-10 720v80h517v-80h-517z" />
<glyph unicode="&#xb0;" horiz-adv-x="370" d="M48 599q0 58 38.5 94.5t98.5 36.5q59 0 98 -36.5t39 -94.5t-39 -94.5t-98 -36.5q-60 0 -98.5 36t-38.5 95zM120 599q0 -29 17.5 -46.5t46.5 -17.5t47 17.5t18 46.5t-18.5 47t-46.5 18q-29 0 -46.5 -18t-17.5 -47z" />
<glyph unicode="&#xb1;" horiz-adv-x="614" d="M58 336v79h195v188h99v-188h197v-79h-197v-191h-99v191h-195zM68 -30v79h472v-79h-472z" />
<glyph unicode="&#xb2;" horiz-adv-x="333" d="M42 362v45q0 42 39 72l102 77q30 22 30 60q0 22 -17 35t-46 13q-32 0 -104 -12v65q63 13 106 13q59 0 97.5 -30t38.5 -84q0 -65 -57 -108l-101 -77q-13 -10 -13 -31v-17h174v-28q0 -37 -39 -37h-162q-27 0 -37.5 9t-10.5 35z" />
<glyph unicode="&#xb3;" horiz-adv-x="333" d="M39 319v28q0 39 41 33q36 -4 63 -4q37 0 55.5 12.5t18.5 45.5q0 59 -70 59h-58q-15 0 -21 5.5t-6 20.5v40h85q61 0 61 59q0 45 -61 45q-33 0 -101 -11l-2 63q60 15 104 15q60 0 98.5 -27.5t37.5 -85.5q-2 -61 -43 -86q24 -12 38 -38t14 -55q0 -132 -150 -129 q-52 2 -104 10z" />
<glyph unicode="&#xb4;" horiz-adv-x="333" d="M74 584l80 146h110l-91 -118q-12 -16 -24 -22t-34 -6h-41z" />
<glyph unicode="&#xb5;" horiz-adv-x="564" d="M70 -170l1 690h97v-352q0 -71 22.5 -95t82.5 -24h121v471h98v-550h-219q-63 0 -105 15v-209h-43q-29 0 -42 12.5t-13 41.5z" />
<glyph unicode="&#xb6;" horiz-adv-x="532" d="M29 521q3 94 56 144.5t148 50.5h227v-873h-37q-29 0 -42 12.5t-13 41.5v739h-82v-793h-36q-29 0 -42 12.5t-13 41.5v420q-69 8 -119 61t-47 143z" />
<glyph unicode="&#xb7;" horiz-adv-x="333" d="M112 304v114h109v-114h-109z" />
<glyph unicode="&#xb8;" horiz-adv-x="333" d="M69 -232l9 56q30 -3 46 -3q78 0 78 37q0 16 -14.5 24t-62.5 9l26 86h75l-16 -52q74 -9 74 -72q0 -38 -37.5 -65t-103.5 -27q-37 0 -74 7z" />
<glyph unicode="&#xb9;" horiz-adv-x="333" d="M78 651v65h104q32 0 32 -31v-369h-36q-39 0 -39 42v293h-61z" />
<glyph unicode="&#xba;" horiz-adv-x="382" d="M40 480v100q0 146 149 146t149 -146v-100q0 -145 -149 -145t-149 145zM121 480q0 -77 68 -77t68 77v100q0 76 -68 76t-68 -76v-100z" />
<glyph unicode="&#xbb;" d="M85 551l34 51l479 -310l-474 -321l-34 51l398 268zM289 551l35 51l479 -310l-474 -321l-35 51l398 268z" />
<glyph unicode="&#xbc;" horiz-adv-x="800" d="M74 651v65h104q32 0 32 -31v-369h-36q-39 0 -39 42v293h-61zM113 -44l449 760h94l-450 -760h-93zM422 24v61l150 241q10 16 20.5 23t30.5 7h66v-268h37v-32q0 -32 -35 -32h-2v-68h-36q-38 0 -38 44v24h-193zM504 88h111v174z" />
<glyph unicode="&#xbd;" horiz-adv-x="800" d="M74 651v65h104q32 0 32 -31v-369h-36q-39 0 -39 42v293h-61zM93 -44l449 760h94l-450 -760h-93zM491 0v40q0 35 39 72l99 81q33 30 33 63q0 46 -49 46q-46 0 -118 -12v65q74 13 121 13q52 0 86.5 -29.5t34.5 -82.5q0 -57 -60 -113q-16 -15 -49.5 -41.5t-48.5 -39.5 q-13 -13 -13 -31v-10h174v-28q0 -37 -39 -37h-162q-27 0 -37.5 9t-10.5 35z" />
<glyph unicode="&#xbe;" horiz-adv-x="800" d="M39 319v28q0 39 41 33q36 -4 63 -4q37 0 55.5 12.5t18.5 45.5q0 32 -14 45.5t-46 13.5h-68q-15 0 -21 5.5t-6 20.5v40h95q29 0 40 13.5t11 45.5q0 45 -51 45q-45 0 -113 -11v63q60 15 114 15q59 0 93 -27.5t33 -85.5q-1 -54 -35 -86q44 -28 44 -93q0 -132 -150 -129 q-52 2 -104 10zM133 -44l449 760h94l-450 -760h-93zM422 24v61l150 241q10 16 20.5 23t30.5 7h66v-268h37v-32q0 -32 -35 -32h-2v-68h-36q-38 0 -38 44v24h-193zM504 88h111v174z" />
<glyph unicode="&#xbf;" horiz-adv-x="544" d="M43 132q0 114 94 182l86 61q19 14 23.5 29.5t4.5 47.5v55h98v-58q0 -48 -9 -76t-33 -44l-91 -62q-44 -30 -59.5 -60.5t-15.5 -70.5q0 -53 38.5 -82t109.5 -29q95 0 195 30l5 -78q-97 -31 -198 -31q-112 0 -180 49.5t-68 136.5zM246 602v114h109v-114h-109z" />
<glyph unicode="&#xc0;" horiz-adv-x="656" d="M17 -30l250 746h85q35 0 48 -36l240 -710h-100l-87 265q-10 -19 -34 -32.5t-56 -13.5h-175l-70 -219h-101zM214 270h228l-114 352zM215 930h110l80 -146h-41q-22 0 -34 6t-24 22z" />
<glyph unicode="&#xc1;" horiz-adv-x="656" d="M17 -30l250 746h85q35 0 48 -36l240 -710h-100l-87 265q-10 -19 -34 -32.5t-56 -13.5h-175l-70 -219h-101zM214 270h228l-114 352zM229 784l80 146h110l-91 -118q-12 -16 -24 -22t-34 -6h-41z" />
<glyph unicode="&#xc2;" horiz-adv-x="656" d="M17 -30l250 746h85q35 0 48 -36l240 -710h-100l-87 265q-10 -19 -34 -32.5t-56 -13.5h-175l-70 -219h-101zM162 781l114 135h97l113 -135h-98l-63 78l-65 -78h-98zM214 270h228l-114 352z" />
<glyph unicode="&#xc3;" horiz-adv-x="656" d="M17 -30l250 746h85q35 0 48 -36l240 -710h-100l-87 265q-10 -19 -34 -32.5t-56 -13.5h-175l-70 -219h-101zM135 779q5 54 36 88t81 34q38 0 86 -26q36 -19 54 -19q33 0 45 45h77q-9 -55 -38.5 -88t-79.5 -33q-43 0 -93 27q-43 19 -50 19q-33 0 -43 -47h-75zM214 270h228 l-114 352z" />
<glyph unicode="&#xc4;" horiz-adv-x="656" d="M17 -30l250 746h85q35 0 48 -36l240 -710h-100l-87 265q-10 -19 -34 -32.5t-56 -13.5h-175l-70 -219h-101zM177 795v105h104v-105h-104zM214 270h228l-114 352zM369 795v105h103v-105h-103z" />
<glyph unicode="&#xc5;" horiz-adv-x="656" d="M17 -30l250 746h85q35 0 48 -36l240 -710h-100l-87 265q-10 -19 -34 -32.5t-56 -13.5h-175l-70 -219h-101zM214 270h228l-114 352zM220 856q0 44 29.5 72t74.5 28q46 0 75.5 -27.5t29.5 -72.5t-29.5 -72.5t-75.5 -27.5q-45 0 -74.5 28t-29.5 72zM281 856q0 -43 43 -43 q44 0 44 43q0 20 -12 32t-32 12t-31.5 -12t-11.5 -32z" />
<glyph unicode="&#xc6;" horiz-adv-x="985" d="M17 -30l330 746h596v-25q0 -28 -11 -41t-44 -13h-309v-232h332v-28q0 -24 -11 -37.5t-43 -13.5h-278v-277h376v-28q0 -24 -11.5 -37.5t-42.5 -13.5h-420v240q-27 -21 -68 -21h-193l-97 -219h-106zM256 270h225v367h-63z" />
<glyph unicode="&#xc7;" horiz-adv-x="573" d="M61 162v365q0 88 59 138.5t164 50.5h243v-28q0 -24 -13.5 -37.5t-51.5 -13.5h-175q-128 0 -128 -123v-345q0 -51 27.5 -85.5t78.5 -34.5h272v-29q0 -50 -66 -50h-105l-14 -45q74 -9 74 -72q0 -38 -37.5 -65t-103.5 -27q-37 0 -74 7l9 56q30 -3 46 -3q78 0 78 37 q0 16 -14.5 24t-62.5 9l24 79h-30q-88 0 -144 53t-56 139z" />
<glyph unicode="&#xc8;" horiz-adv-x="592" d="M74 -30v746h462v-25q0 -28 -11 -41t-44 -13h-309v-232h332v-28q0 -24 -11 -37.5t-43 -13.5h-278v-277h376v-28q0 -24 -11.5 -37.5t-42.5 -13.5h-420zM201 930h110l80 -146h-41q-22 0 -34 6t-24 22z" />
<glyph unicode="&#xc9;" horiz-adv-x="592" d="M74 -30v746h462v-25q0 -28 -11 -41t-44 -13h-309v-232h332v-28q0 -24 -11 -37.5t-43 -13.5h-278v-277h376v-28q0 -24 -11.5 -37.5t-42.5 -13.5h-420zM201 784l80 146h110l-91 -118q-12 -16 -24 -22t-34 -6h-41z" />
<glyph unicode="&#xca;" horiz-adv-x="592" d="M74 -30v746h462v-25q0 -28 -11 -41t-44 -13h-309v-232h332v-28q0 -24 -11 -37.5t-43 -13.5h-278v-277h376v-28q0 -24 -11.5 -37.5t-42.5 -13.5h-420zM134 781l114 135h97l113 -135h-98l-63 78l-65 -78h-98z" />
<glyph unicode="&#xcb;" horiz-adv-x="592" d="M74 -30v746h462v-25q0 -28 -11 -41t-44 -13h-309v-232h332v-28q0 -24 -11 -37.5t-43 -13.5h-278v-277h376v-28q0 -24 -11.5 -37.5t-42.5 -13.5h-420zM148 795v105h104v-105h-104zM340 795v105h103v-105h-103z" />
<glyph unicode="&#xcc;" horiz-adv-x="263" d="M37 930h110l80 -146h-41q-22 0 -34 6t-24 22zM84 24v692h99v-746h-45q-29 0 -41.5 12.5t-12.5 41.5z" />
<glyph unicode="&#xcd;" horiz-adv-x="263" d="M37 784l80 146h110l-91 -118q-12 -16 -24 -22t-34 -6h-41zM84 24v692h99v-746h-45q-29 0 -41.5 12.5t-12.5 41.5z" />
<glyph unicode="&#xce;" horiz-adv-x="263" d="M-30 781l114 135h97l113 -135h-98l-63 78l-65 -78h-98zM84 24v692h99v-746h-45q-29 0 -41.5 12.5t-12.5 41.5z" />
<glyph unicode="&#xcf;" horiz-adv-x="263" d="M-16 795v105h104v-105h-104zM84 24v692h99v-746h-45q-29 0 -41.5 12.5t-12.5 41.5zM176 795v105h103v-105h-103z" />
<glyph unicode="&#xd0;" horiz-adv-x="718" d="M31 305v79h94v332h283q117 0 177 -55.5t60 -146.5v-344q0 -90 -60 -145t-177 -55h-283v335h-94zM222 49h186q65 0 102.5 32.5t37.5 88.5v344q0 60 -37 91.5t-103 31.5h-186v-253h171v-29q0 -24 -13 -37t-51 -13h-107v-256z" />
<glyph unicode="&#xd1;" horiz-adv-x="669" d="M74 24v692h309q111 0 161 -41.5t50 -153.5v-551h-43q-29 0 -42 12.5t-13 41.5v498q0 66 -24.5 90.5t-88.5 24.5h-211v-667h-44q-29 0 -41.5 12.5t-12.5 41.5zM138 779q5 54 36 88t81 34q38 0 86 -26q36 -19 54 -19q33 0 45 45h77q-9 -55 -38.5 -88t-79.5 -33 q-43 0 -93 27q-43 19 -50 19q-33 0 -43 -47h-75z" />
<glyph unicode="&#xd2;" horiz-adv-x="695" d="M59 273v140q0 154 71.5 235.5t215.5 81.5q288 0 288 -317v-141q0 -154 -71.5 -235t-216.5 -81q-144 0 -215.5 81.5t-71.5 235.5zM157 272q0 -232 189 -232q190 0 190 233v141q0 105 -49 168.5t-141 63.5q-91 0 -140 -64t-49 -169v-141zM241 930h110l80 -146h-41 q-22 0 -34 6t-24 22z" />
<glyph unicode="&#xd3;" horiz-adv-x="695" d="M59 273v140q0 154 71.5 235.5t215.5 81.5q288 0 288 -317v-141q0 -154 -71.5 -235t-216.5 -81q-144 0 -215.5 81.5t-71.5 235.5zM157 272q0 -232 189 -232q190 0 190 233v141q0 105 -49 168.5t-141 63.5q-91 0 -140 -64t-49 -169v-141zM241 784l80 146h110l-91 -118 q-12 -16 -24 -22t-34 -6h-41z" />
<glyph unicode="&#xd4;" horiz-adv-x="695" d="M59 273v140q0 154 71.5 235.5t215.5 81.5q288 0 288 -317v-141q0 -154 -71.5 -235t-216.5 -81q-144 0 -215.5 81.5t-71.5 235.5zM157 272q0 -232 189 -232q190 0 190 233v141q0 105 -49 168.5t-141 63.5q-91 0 -140 -64t-49 -169v-141zM174 781l114 135h97l113 -135h-98 l-63 78l-65 -78h-98z" />
<glyph unicode="&#xd5;" horiz-adv-x="695" d="M59 273v140q0 154 71.5 235.5t215.5 81.5q288 0 288 -317v-141q0 -154 -71.5 -235t-216.5 -81q-144 0 -215.5 81.5t-71.5 235.5zM147 779q5 54 36 88t81 34q38 0 86 -26q36 -19 54 -19q33 0 45 45h77q-9 -55 -38.5 -88t-79.5 -33q-43 0 -93 27q-43 19 -50 19 q-33 0 -43 -47h-75zM157 272q0 -232 189 -232q190 0 190 233v141q0 105 -49 168.5t-141 63.5q-91 0 -140 -64t-49 -169v-141z" />
<glyph unicode="&#xd6;" horiz-adv-x="695" d="M59 273v140q0 154 71.5 235.5t215.5 81.5q288 0 288 -317v-141q0 -154 -71.5 -235t-216.5 -81q-144 0 -215.5 81.5t-71.5 235.5zM157 272q0 -232 189 -232q190 0 190 233v141q0 105 -49 168.5t-141 63.5q-91 0 -140 -64t-49 -169v-141zM189 795v105h104v-105h-104z M381 795v105h103v-105h-103z" />
<glyph unicode="&#xd7;" horiz-adv-x="584" d="M79 180l153 154l-153 153l60 59l153 -153l153 153l58 -59l-152 -153l153 -153l-59 -60l-153 153l-154 -153z" />
<glyph unicode="&#xd8;" horiz-adv-x="695" d="M60 273v140q0 154 71.5 235.5t215.5 81.5q57 0 105 -14l27 65h99l-44 -106q101 -77 101 -262v-141q0 -154 -71.5 -235t-216.5 -81q-57 0 -105 14l-29 -72h-98l46 112q-101 77 -101 263zM158 272q0 -108 42 -166l218 527q-34 13 -71 13q-91 0 -140 -64.5t-49 -168.5v-141z M276 50q30 -10 71 -10q190 0 190 233v141q0 99 -44 161z" />
<glyph unicode="&#xd9;" horiz-adv-x="676" d="M75 165v551h98v-552q0 -66 24.5 -90.5t88.5 -24.5h211v667h98v-746h-309q-111 0 -161 41.5t-50 153.5zM243 930h110l80 -146h-41q-22 0 -34 6t-24 22z" />
<glyph unicode="&#xda;" horiz-adv-x="676" d="M75 165v551h98v-552q0 -66 24.5 -90.5t88.5 -24.5h211v667h98v-746h-309q-111 0 -161 41.5t-50 153.5zM243 784l80 146h110l-91 -118q-12 -16 -24 -22t-34 -6h-41z" />
<glyph unicode="&#xdb;" horiz-adv-x="676" d="M75 165v551h98v-552q0 -66 24.5 -90.5t88.5 -24.5h211v667h98v-746h-309q-111 0 -161 41.5t-50 153.5zM176 781l114 135h97l113 -135h-98l-63 78l-65 -78h-98z" />
<glyph unicode="&#xdc;" horiz-adv-x="676" d="M75 165v551h98v-552q0 -66 24.5 -90.5t88.5 -24.5h211v667h98v-746h-309q-111 0 -161 41.5t-50 153.5zM190 795v105h104v-105h-104zM382 795v105h103v-105h-103z" />
<glyph unicode="&#xdd;" horiz-adv-x="664" d="M16 716h106l208 -360l209 360h107l-269 -450v-296h-43q-29 0 -42 12.5t-13 41.5v242zM242 784l80 146h110l-91 -118q-12 -16 -24 -22t-34 -6h-41z" />
<glyph unicode="&#xde;" horiz-adv-x="610" d="M75 24v692h97v-163h145q124 0 184.5 -46t60.5 -161q0 -117 -57.5 -167t-179.5 -50h-153v-159h-42q-29 0 -42 12.5t-13 41.5zM172 208h155q78 0 108.5 34t30.5 101q0 75 -33.5 102.5t-107.5 27.5h-153v-265z" />
<glyph unicode="&#xdf;" horiz-adv-x="626" d="M75 24v485q0 119 54 170t163 51q90 0 144.5 -41.5t54.5 -104.5q0 -62 -35 -123q-40 -69 -40 -86q0 -13 2.5 -21t19 -25t49.5 -40q61 -42 83 -81t22 -86q0 -72 -50.5 -119t-136.5 -47q-122 0 -172 81l68 56q14 -26 43.5 -40.5t59.5 -14.5q38 0 61 23.5t23 59.5 q0 27 -12 48t-47 47q-76 56 -97.5 84t-21.5 61q0 35 42 106q40 69 40 107q0 33 -28 57t-74 24q-118 0 -118 -150v-535h-42q-29 0 -42 12.5t-13 41.5z" />
<glyph unicode="&#xe0;" horiz-adv-x="537" d="M55 116v62q0 162 181 157q70 -1 138 -10v45q0 71 -80 71h-135q-38 0 -51 12t-13 35v32h199q178 0 178 -150v-400h-236q-85 0 -133 37.5t-48 108.5zM153 121q0 -39 25 -55.5t59 -16.5h137v193q-74 10 -137 10q-44 0 -64 -18t-20 -60v-53zM167 730h110l80 -146h-41 q-22 0 -34 6t-24 22z" />
<glyph unicode="&#xe1;" horiz-adv-x="537" d="M55 116v62q0 162 181 157q70 -1 138 -10v45q0 71 -80 71h-135q-38 0 -51 12t-13 35v32h199q178 0 178 -150v-400h-236q-85 0 -133 37.5t-48 108.5zM153 121q0 -39 25 -55.5t59 -16.5h137v193q-74 10 -137 10q-44 0 -64 -18t-20 -60v-53zM167 584l80 146h110l-91 -118 q-12 -16 -24 -22t-34 -6h-41z" />
<glyph unicode="&#xe2;" horiz-adv-x="537" d="M55 116v62q0 162 181 157q70 -1 138 -10v45q0 71 -80 71h-135q-38 0 -51 12t-13 35v32h199q178 0 178 -150v-400h-236q-85 0 -133 37.5t-48 108.5zM100 581l114 135h97l113 -135h-98l-63 78l-65 -78h-98zM153 121q0 -39 25 -55.5t59 -16.5h137v193q-74 10 -137 10 q-44 0 -64 -18t-20 -60v-53z" />
<glyph unicode="&#xe3;" horiz-adv-x="537" d="M55 116v62q0 162 181 157q70 -1 138 -10v45q0 71 -80 71h-135q-38 0 -51 12t-13 35v32h199q178 0 178 -150v-400h-236q-85 0 -133 37.5t-48 108.5zM76 579q5 54 36 88t81 34q38 0 86 -26q36 -19 54 -19q33 0 45 45h77q-9 -55 -38.5 -88t-79.5 -33q-43 0 -93 27 q-43 19 -50 19q-33 0 -43 -47h-75zM153 121q0 -39 25 -55.5t59 -16.5h137v193q-74 10 -137 10q-44 0 -64 -18t-20 -60v-53z" />
<glyph unicode="&#xe4;" horiz-adv-x="537" d="M55 116v62q0 162 181 157q70 -1 138 -10v45q0 71 -80 71h-135q-38 0 -51 12t-13 35v32h199q178 0 178 -150v-400h-236q-85 0 -133 37.5t-48 108.5zM115 595v105h104v-105h-104zM153 121q0 -39 25 -55.5t59 -16.5h137v193q-74 10 -137 10q-44 0 -64 -18t-20 -60v-53z M307 595v105h103v-105h-103z" />
<glyph unicode="&#xe5;" horiz-adv-x="537" d="M55 116v62q0 162 181 157q70 -1 138 -10v45q0 71 -80 71h-135q-38 0 -51 12t-13 35v32h199q178 0 178 -150v-400h-236q-85 0 -133 37.5t-48 108.5zM153 121q0 -39 25 -55.5t59 -16.5h137v193q-74 10 -137 10q-44 0 -64 -18t-20 -60v-53zM158 656q0 44 29.5 72t74.5 28 q46 0 75.5 -27.5t29.5 -72.5t-29.5 -72.5t-75.5 -27.5q-45 0 -74.5 28t-29.5 72zM219 656q0 -43 43 -43q44 0 44 43q0 20 -12 32t-32 12t-31.5 -12t-11.5 -32z" />
<glyph unicode="&#xe6;" horiz-adv-x="860" d="M55 116v62q0 162 181 157q70 -1 138 -10v45q0 71 -80 71h-135q-38 0 -51 12t-13 35v32h199q94 0 138 -41q59 55 156 55q96 0 157 -50.5t61 -136.5v-70q0 -36 -18 -54t-59 -18h-257v-64q1 -43 27.5 -67.5t65.5 -24.5h221v-32q0 -24 -12 -35.5t-51 -11.5h-158 q-88 0 -136 47q-40 -47 -107 -47h-86q-85 0 -133 37.5t-48 108.5zM153 121q0 -39 25 -55.5t59 -16.5h67q29 0 49.5 20.5t20.5 48.5v124q-74 10 -137 10q-44 0 -64 -18t-20 -60v-53zM472 284h218q11 0 14.5 4t3.5 16v43q0 47 -31.5 77.5t-88.5 30.5q-51 0 -82.5 -29.5 t-33.5 -74.5v-67z" />
<glyph unicode="&#xe7;" horiz-adv-x="498" d="M62 154v180q0 84 56.5 135t147.5 51h187v-27q0 -25 -12 -38.5t-49 -13.5h-126q-51 0 -78.5 -27.5t-27.5 -79.5v-179q0 -48 28 -77t78 -29h191v-29q0 -24 -13 -37t-51 -13h-39l-14 -45q74 -9 74 -72q0 -38 -37.5 -65t-103.5 -27q-37 0 -74 7l9 56q30 -3 46 -3q78 0 78 37 q0 16 -14.5 24t-62.5 9l24 79h-13q-91 0 -147.5 50t-56.5 134z" />
<glyph unicode="&#xe8;" horiz-adv-x="543" d="M55 146v191q0 100 60 148.5t154 48.5q97 0 157.5 -47t60.5 -130v-80q0 -36 -18 -54t-59 -18h-257v-59q0 -45 26.5 -71t66.5 -26h221v-32q0 -24 -12 -35.5t-51 -11.5h-158q-87 0 -139 47.5t-52 128.5zM153 284h218q11 0 14.5 4t3.5 16v53q0 46 -31 72t-89 26 q-53 0 -84.5 -26.5t-31.5 -71.5v-73zM171 730h110l80 -146h-41q-22 0 -34 6t-24 22z" />
<glyph unicode="&#xe9;" horiz-adv-x="543" d="M55 146v191q0 100 60 148.5t154 48.5q97 0 157.5 -47t60.5 -130v-80q0 -36 -18 -54t-59 -18h-257v-59q0 -45 26.5 -71t66.5 -26h221v-32q0 -24 -12 -35.5t-51 -11.5h-158q-87 0 -139 47.5t-52 128.5zM153 284h218q11 0 14.5 4t3.5 16v53q0 46 -31 72t-89 26 q-53 0 -84.5 -26.5t-31.5 -71.5v-73zM171 584l80 146h110l-91 -118q-12 -16 -24 -22t-34 -6h-41z" />
<glyph unicode="&#xea;" horiz-adv-x="543" d="M55 146v191q0 100 60 148.5t154 48.5q97 0 157.5 -47t60.5 -130v-80q0 -36 -18 -54t-59 -18h-257v-59q0 -45 26.5 -71t66.5 -26h221v-32q0 -24 -12 -35.5t-51 -11.5h-158q-87 0 -139 47.5t-52 128.5zM104 581l114 135h97l113 -135h-98l-63 78l-65 -78h-98zM153 284h218 q11 0 14.5 4t3.5 16v53q0 46 -31 72t-89 26q-53 0 -84.5 -26.5t-31.5 -71.5v-73z" />
<glyph unicode="&#xeb;" horiz-adv-x="543" d="M55 146v191q0 100 60 148.5t154 48.5q97 0 157.5 -47t60.5 -130v-80q0 -36 -18 -54t-59 -18h-257v-59q0 -45 26.5 -71t66.5 -26h221v-32q0 -24 -12 -35.5t-51 -11.5h-158q-87 0 -139 47.5t-52 128.5zM125 595v105h104v-105h-104zM153 284h218q11 0 14.5 4t3.5 16v53 q0 46 -31 72t-89 26q-53 0 -84.5 -26.5t-31.5 -71.5v-73zM317 595v105h103v-105h-103z" />
<glyph unicode="&#xec;" horiz-adv-x="239" d="M24 730h110l80 -146h-41q-22 0 -34 6t-24 22zM69 25v495h98v-550h-43q-29 0 -42 12.5t-13 42.5z" />
<glyph unicode="&#xed;" horiz-adv-x="239" d="M19 584l80 146h110l-91 -118q-12 -16 -24 -22t-34 -6h-41zM69 25v495h98v-550h-43q-29 0 -42 12.5t-13 42.5z" />
<glyph unicode="&#xee;" horiz-adv-x="239" d="M-53 581l114 135h97l113 -135h-98l-63 78l-65 -78h-98zM69 25v495h98v-550h-43q-29 0 -42 12.5t-13 42.5z" />
<glyph unicode="&#xef;" horiz-adv-x="239" d="M-37 595v105h104v-105h-104zM69 25v495h98v-550h-43q-29 0 -42 12.5t-13 42.5zM155 595v105h103v-105h-103z" />
<glyph unicode="&#xf0;" horiz-adv-x="583" d="M61 159v132q0 94 55.5 146t164.5 52q95 0 143 -48v33q0 104 -61 147l-120 -108l-59 59l85 77q-3 0 -7 0.5t-7 0.5q-32 0 -100 -5q-41 -2 -41 36v41q72 8 142 8q46 0 91 -10l84 76l60 -60l-61 -54q88 -65 88 -219v-304q0 -100 -60.5 -152t-170.5 -50q-109 2 -167.5 52.5 t-58.5 149.5zM156 172q0 -133 131 -133q74 0 105.5 30.5t31.5 101.5v111q0 67 -35 96t-106 29q-64 0 -95.5 -29.5t-31.5 -99.5v-106z" />
<glyph unicode="&#xf1;" horiz-adv-x="565" d="M70 25v495h239q104 0 145 -38.5t41 -134.5v-377h-44q-29 0 -42 12.5t-13 42.5v322q0 55 -19 74.5t-68 19.5h-141v-471h-42q-30 0 -43 12.5t-13 42.5zM75 579q5 54 36 88t81 34q38 0 86 -26q36 -19 54 -19q33 0 45 45h77q-9 -55 -38.5 -88t-79.5 -33q-43 0 -93 27 q-43 19 -50 19q-33 0 -43 -47h-75z" />
<glyph unicode="&#xf2;" horiz-adv-x="568" d="M60 173v145q0 216 223 216t223 -216v-145q0 -217 -223 -217t-223 217zM158 173q0 -67 32.5 -102.5t92.5 -35.5t92.5 35t32.5 103v145q0 61 -30.5 99t-94.5 38q-59 0 -92 -35t-33 -102v-145zM174 730h110l80 -146h-41q-22 0 -34 6t-24 22z" />
<glyph unicode="&#xf3;" horiz-adv-x="568" d="M60 173v145q0 216 223 216t223 -216v-145q0 -217 -223 -217t-223 217zM158 173q0 -67 32.5 -102.5t92.5 -35.5t92.5 35t32.5 103v145q0 61 -30.5 99t-94.5 38q-59 0 -92 -35t-33 -102v-145zM174 584l80 146h110l-91 -118q-12 -16 -24 -22t-34 -6h-41z" />
<glyph unicode="&#xf4;" horiz-adv-x="568" d="M60 173v145q0 216 223 216t223 -216v-145q0 -217 -223 -217t-223 217zM107 581l114 135h97l113 -135h-98l-63 78l-65 -78h-98zM158 173q0 -67 32.5 -102.5t92.5 -35.5t92.5 35t32.5 103v145q0 61 -30.5 99t-94.5 38q-59 0 -92 -35t-33 -102v-145z" />
<glyph unicode="&#xf5;" horiz-adv-x="568" d="M60 173v145q0 216 223 216t223 -216v-145q0 -217 -223 -217t-223 217zM80 579q5 54 36 88t81 34q38 0 86 -26q36 -19 54 -19q33 0 45 45h77q-9 -55 -38.5 -88t-79.5 -33q-43 0 -93 27q-43 19 -50 19q-33 0 -43 -47h-75zM158 173q0 -67 32.5 -102.5t92.5 -35.5t92.5 35 t32.5 103v145q0 61 -30.5 99t-94.5 38q-59 0 -92 -35t-33 -102v-145z" />
<glyph unicode="&#xf6;" horiz-adv-x="568" d="M60 173v145q0 216 223 216t223 -216v-145q0 -217 -223 -217t-223 217zM122 595v105h104v-105h-104zM158 173q0 -67 32.5 -102.5t92.5 -35.5t92.5 35t32.5 103v145q0 61 -30.5 99t-94.5 38q-59 0 -92 -35t-33 -102v-145zM314 595v105h103v-105h-103z" />
<glyph unicode="&#xf7;" horiz-adv-x="501" d="M29 301v79h442v-79h-442zM193 100v114h109v-114h-109zM193 468v114h109v-114h-109z" />
<glyph unicode="&#xf8;" horiz-adv-x="564" d="M60 173v145q0 216 223 216q30 0 62 -5l35 87h96l-47 -119q77 -52 77 -179v-145q0 -217 -223 -217q-37 0 -67 6l-36 -91h-95l49 124q-74 52 -74 178zM158 173q0 -47 15 -78l142 357q-15 3 -32 3q-59 0 -92 -35t-33 -102v-145zM247 39q15 -4 36 -4q60 0 92.5 35t32.5 103 v145q0 46 -18 81z" />
<glyph unicode="&#xf9;" horiz-adv-x="555" d="M65 168v352h97v-352q0 -71 22.5 -95t82.5 -24h121v471h98v-550h-219q-107 0 -154.5 44.5t-47.5 153.5zM174 730h110l80 -146h-41q-22 0 -34 6t-24 22z" />
<glyph unicode="&#xfa;" horiz-adv-x="555" d="M65 168v352h97v-352q0 -71 22.5 -95t82.5 -24h121v471h98v-550h-219q-107 0 -154.5 44.5t-47.5 153.5zM174 584l80 146h110l-91 -118q-12 -16 -24 -22t-34 -6h-41z" />
<glyph unicode="&#xfb;" horiz-adv-x="555" d="M65 168v352h97v-352q0 -71 22.5 -95t82.5 -24h121v471h98v-550h-219q-107 0 -154.5 44.5t-47.5 153.5zM107 581l114 135h97l113 -135h-98l-63 78l-65 -78h-98z" />
<glyph unicode="&#xfc;" horiz-adv-x="555" d="M65 168v352h97v-352q0 -71 22.5 -95t82.5 -24h121v471h98v-550h-219q-107 0 -154.5 44.5t-47.5 153.5zM121 595v105h104v-105h-104zM313 595v105h103v-105h-103z" />
<glyph unicode="&#xfd;" horiz-adv-x="555" d="M64 146v374h98v-373q0 -51 17 -74.5t60 -22.5q49 1 149 10v460h98v-612q0 -67 -42 -107t-129 -40h-225v32q0 28 13.5 39.5t47.5 11.5h164q41 0 57 16.5t16 48.5v70q-57 -6 -153 -9q-86 -3 -128.5 43t-42.5 133zM165 584l80 146h110l-91 -118q-12 -16 -24 -22t-34 -6h-41z " />
<glyph unicode="&#xfe;" horiz-adv-x="538" d="M75 -184v905h98v-201h107q100 0 152.5 -44.5t52.5 -131.5v-198q0 -176 -205 -176h-107v-209h-44q-28 0 -41 12.5t-13 42.5zM173 49h107q50 0 78.5 27t28.5 80v178q0 53 -28.5 80t-77.5 27h-108v-392z" />
<glyph unicode="&#xff;" horiz-adv-x="555" d="M64 146v374h98v-373q0 -51 17 -74.5t60 -22.5q49 1 149 10v460h98v-612q0 -67 -42 -107t-129 -40h-225v32q0 28 13.5 39.5t47.5 11.5h164q41 0 57 16.5t16 48.5v70q-57 -6 -153 -9q-86 -3 -128.5 43t-42.5 133zM112 595v105h104v-105h-104zM304 595v105h103v-105h-103z " />
<glyph unicode="&#x152;" horiz-adv-x="961" d="M60 273v140q0 154 71.5 235.5t215.5 81.5q57 0 107 -14h455v-25q0 -28 -11 -41t-44 -13h-309v-232h332v-28q0 -24 -11 -37.5t-43 -13.5h-278v-277h376v-28q0 -24 -11.5 -37.5t-42.5 -13.5h-414q-48 -14 -106 -14q-144 0 -215.5 81.5t-71.5 235.5zM158 272q0 -114 48 -173 t141 -59q60 0 100 22v556q-42 28 -100 28q-91 0 -140 -64.5t-49 -168.5v-141z" />
<glyph unicode="&#x153;" horiz-adv-x="894" d="M60 173v145q0 216 223 216q117 0 173 -60q57 60 166 60q97 0 157.5 -47t60.5 -130v-80q0 -36 -18 -54t-59 -18h-257v-59q0 -45 26.5 -71t66.5 -26h221v-32q0 -24 -12 -35.5t-51 -11.5h-158q-88 0 -140 49q-54 -63 -176 -63q-223 0 -223 217zM158 173q0 -67 32.5 -102.5 t92.5 -35.5t92.5 35t32.5 103v145q0 61 -30.5 99t-94.5 38q-59 0 -92 -35t-33 -102v-145zM506 284h218q11 0 14.5 4t3.5 16v53q0 46 -31 72t-89 26q-53 0 -84.5 -26.5t-31.5 -71.5v-73z" />
<glyph unicode="&#x178;" horiz-adv-x="664" d="M16 716h106l208 -360l209 360h107l-269 -450v-296h-43q-29 0 -42 12.5t-13 41.5v242zM190 795v105h104v-105h-104zM382 795v105h103v-105h-103z" />
<glyph unicode="&#x2c6;" horiz-adv-x="484" d="M80 581l114 135h97l113 -135h-98l-63 78l-65 -78h-98z" />
<glyph unicode="&#x2dc;" d="M222 593q5 55 45.5 90t99.5 35q42 0 105 -40q53 -34 79 -34q27 0 45.5 17t24.5 44h77q-7 -57 -47 -92.5t-93 -35.5q-55 0 -116 39l-12 8t-13 8.5t-12 7t-13.5 6.5t-13 3.5t-14.5 1.5q-28 0 -45.5 -16t-19.5 -42h-77z" />
<glyph unicode="&#x2000;" horiz-adv-x="478" />
<glyph unicode="&#x2001;" horiz-adv-x="956" />
<glyph unicode="&#x2002;" horiz-adv-x="478" />
<glyph unicode="&#x2003;" horiz-adv-x="956" />
<glyph unicode="&#x2004;" horiz-adv-x="318" />
<glyph unicode="&#x2005;" horiz-adv-x="239" />
<glyph unicode="&#x2006;" horiz-adv-x="159" />
<glyph unicode="&#x2007;" horiz-adv-x="159" />
<glyph unicode="&#x2008;" horiz-adv-x="119" />
<glyph unicode="&#x2009;" horiz-adv-x="191" />
<glyph unicode="&#x200a;" horiz-adv-x="53" />
<glyph unicode="&#x2010;" horiz-adv-x="553" d="M66 301v79h422v-79h-422z" />
<glyph unicode="&#x2011;" horiz-adv-x="553" d="M66 301v79h422v-79h-422z" />
<glyph unicode="&#x2012;" horiz-adv-x="553" d="M66 301v79h422v-79h-422z" />
<glyph unicode="&#x2013;" horiz-adv-x="631" d="M66 301v79h500v-79h-500z" />
<glyph unicode="&#x2014;" d="M34 325v80h829v-80h-829z" />
<glyph unicode="&#x2018;" horiz-adv-x="323" d="M96 527v104q0 52 24.5 90.5t68.5 56.5q4 -6 13.5 -18t13.5 -18q-54 -29 -54 -83v-28h57v-104h-123z" />
<glyph unicode="&#x2019;" horiz-adv-x="323" d="M95 674v104h123v-104q0 -52 -24.5 -90.5t-68.5 -56.5q-4 6 -13.5 18t-13.5 18q54 29 54 83v28h-57z" />
<glyph unicode="&#x201c;" horiz-adv-x="490" d="M92 527v104q0 52 24.5 90.5t68.5 56.5q4 -6 13.5 -18t13.5 -18q-54 -29 -54 -83v-28h57v-104h-123zM278 527v104q0 52 24.5 90.5t68.5 56.5q4 -6 13.5 -18t13.5 -18q-54 -29 -54 -83v-28h57v-104h-123z" />
<glyph unicode="&#x201d;" horiz-adv-x="490" d="M93 671v104h123v-104q0 -52 -24.5 -90.5t-68.5 -56.5q-4 6 -13.5 18t-13.5 18q54 29 54 83v28h-57zM279 671v104h123v-104q0 -52 -24.5 -90.5t-68.5 -56.5q-4 6 -13.5 18t-13.5 18q54 29 54 83v28h-57z" />
<glyph unicode="&#x2022;" d="M339 300q0 50 35.5 85t85.5 35t85.5 -35t35.5 -85q0 -51 -35.5 -86.5t-85.5 -35.5t-85.5 35.5t-35.5 86.5z" />
<glyph unicode="&#x2026;" horiz-adv-x="830" d="M105 304v113h113v-113h-113zM358 304v113h113v-113h-113zM611 304v113h113v-113h-113z" />
<glyph unicode="&#x202f;" horiz-adv-x="191" />
<glyph unicode="&#x2039;" d="M161 300l722 441v-37l-652 -404l652 -403v-39z" />
<glyph unicode="&#x203a;" d="M37 -103l652 403l-652 404v37l722 -441l-722 -442v39z" />
<glyph unicode="&#x205f;" horiz-adv-x="239" />
<glyph unicode="&#x20ac;" d="M144 176v80h155v149h-155v80h155v42q0 88 59 138.5t164 50.5h243v-28q0 -24 -13.5 -37.5t-51.5 -13.5h-175q-128 0 -128 -123v-29h206v-80h-206v-149h206v-80h-206v-7q0 -51 27.5 -85.5t78.5 -34.5h272v-29q0 -50 -66 -50h-210q-88 0 -144 53t-56 139v14h-155z" />
<glyph unicode="&#x2122;" d="M39 638v79h363v-27q0 -29 -11 -40.5t-46 -11.5h-76v-327h-44q-28 0 -41 12.5t-13 41.5v273h-132zM440 337v380h132l95 -197q3 -3 5 0l75 197h133v-406h-66q-30 0 -30 29v266l-72 -184q-9 -19 -42 -19q-31 0 -42 19l-92 184v-295h-66q-30 0 -30 26z" />
<glyph unicode="&#x25fc;" d="M156 -4v608h608v-608h-608z" />
</font>
</defs>
</svg>
